<mxfile host="65bd71144e">
    <diagram id="0fgEC8UYPGC_yDSD97Gh" name="第 1 页">
        <mxGraphModel dx="3955" dy="2232" grid="0" gridSize="10" guides="1" tooltips="1" connect="1" arrows="1" fold="1" page="0" pageScale="1" pageWidth="827" pageHeight="1169" background="#ffffff" math="0" shadow="0">
            <root>
                <mxCell id="0"/>
                <mxCell id="1" parent="0"/>
                <mxCell id="2" value="待配置vlanlist" style="rounded=1;whiteSpace=wrap;html=1;fillColor=#FFFFFF;strokeColor=#000000;fontSize=12;fontColor=#000000;" parent="1" vertex="1">
                    <mxGeometry x="-2720" y="-1480" width="120" height="40" as="geometry"/>
                </mxCell>
                <mxCell id="3" value="是否与已映射stg&lt;br&gt;的vlanlist重叠" style="rhombus;whiteSpace=wrap;html=1;strokeColor=#000000;fontSize=12;fontColor=#000000;fillColor=#FFFFFF;" parent="1" vertex="1">
                    <mxGeometry x="-2740" y="-1410" width="160" height="60" as="geometry"/>
                </mxCell>
                <mxCell id="4" value="分配新stgid" style="rounded=0;whiteSpace=wrap;html=1;strokeColor=#000000;fontSize=12;fontColor=#000000;fillColor=#FFFFFF;" parent="1" vertex="1">
                    <mxGeometry x="-2540" y="-1250" width="80" height="40" as="geometry"/>
                </mxCell>
                <mxCell id="5" value="部分重叠" style="rhombus;whiteSpace=wrap;html=1;strokeColor=#000000;fontSize=12;fontColor=#000000;fillColor=#FFFFFF;" parent="1" vertex="1">
                    <mxGeometry x="-2720" y="-1320" width="120" height="40" as="geometry"/>
                </mxCell>
                <mxCell id="6" value="拆分已配置stgid，分配新stgid" style="rounded=0;whiteSpace=wrap;html=1;strokeColor=#000000;fontSize=12;fontColor=#000000;fillColor=#FFFFFF;" parent="1" vertex="1">
                    <mxGeometry x="-2720" y="-1250" width="120" height="40" as="geometry"/>
                </mxCell>
                <mxCell id="8" value="" style="endArrow=classic;html=1;fontSize=12;fontColor=#000000;exitX=0.5;exitY=1;exitDx=0;exitDy=0;strokeColor=#000000;" parent="1" source="2" target="3" edge="1">
                    <mxGeometry width="50" height="50" relative="1" as="geometry">
                        <mxPoint x="-2560" y="-1270" as="sourcePoint"/>
                        <mxPoint x="-2510" y="-1320" as="targetPoint"/>
                    </mxGeometry>
                </mxCell>
                <mxCell id="10" value="" style="endArrow=classic;html=1;strokeColor=#000000;fontSize=12;fontColor=#000000;exitX=0.5;exitY=1;exitDx=0;exitDy=0;entryX=0.5;entryY=0;entryDx=0;entryDy=0;" parent="1" source="3" target="5" edge="1">
                    <mxGeometry width="50" height="50" relative="1" as="geometry">
                        <mxPoint x="-2560" y="-1270" as="sourcePoint"/>
                        <mxPoint x="-2510" y="-1320" as="targetPoint"/>
                    </mxGeometry>
                </mxCell>
                <mxCell id="11" value="" style="endArrow=classic;html=1;strokeColor=#000000;fontSize=12;fontColor=#000000;exitX=0.5;exitY=1;exitDx=0;exitDy=0;entryX=0.5;entryY=0;entryDx=0;entryDy=0;" parent="1" source="5" target="6" edge="1">
                    <mxGeometry width="50" height="50" relative="1" as="geometry">
                        <mxPoint x="-2650" y="-1340" as="sourcePoint"/>
                        <mxPoint x="-2650" y="-1310" as="targetPoint"/>
                    </mxGeometry>
                </mxCell>
                <mxCell id="12" value="" style="endArrow=classic;html=1;strokeColor=#000000;fontSize=12;fontColor=#000000;exitX=0.5;exitY=1;exitDx=0;exitDy=0;" parent="1" source="6" edge="1">
                    <mxGeometry width="50" height="50" relative="1" as="geometry">
                        <mxPoint x="-2640" y="-1330" as="sourcePoint"/>
                        <mxPoint x="-2660" y="-1180" as="targetPoint"/>
                    </mxGeometry>
                </mxCell>
                <mxCell id="13" value="" style="endArrow=classic;html=1;strokeColor=#000000;fontSize=12;fontColor=#000000;exitX=1;exitY=0.5;exitDx=0;exitDy=0;entryX=0.5;entryY=0;entryDx=0;entryDy=0;" parent="1" source="3" target="4" edge="1">
                    <mxGeometry width="50" height="50" relative="1" as="geometry">
                        <mxPoint x="-2630" y="-1320" as="sourcePoint"/>
                        <mxPoint x="-2630" y="-1290" as="targetPoint"/>
                        <Array as="points">
                            <mxPoint x="-2500" y="-1380"/>
                        </Array>
                    </mxGeometry>
                </mxCell>
                <mxCell id="14" value="" style="endArrow=classic;html=1;strokeColor=#000000;fontSize=12;fontColor=#000000;exitX=0;exitY=0.5;exitDx=0;exitDy=0;entryX=0;entryY=0.5;entryDx=0;entryDy=0;" parent="1" source="5" target="17" edge="1">
                    <mxGeometry width="50" height="50" relative="1" as="geometry">
                        <mxPoint x="-2620" y="-1310" as="sourcePoint"/>
                        <mxPoint x="-2620" y="-1280" as="targetPoint"/>
                        <Array as="points">
                            <mxPoint x="-2770" y="-1300"/>
                            <mxPoint x="-2770" y="-1090"/>
                        </Array>
                    </mxGeometry>
                </mxCell>
                <mxCell id="15" value="" style="endArrow=classic;html=1;strokeColor=#000000;fontSize=12;fontColor=#000000;exitX=0.5;exitY=1;exitDx=0;exitDy=0;entryX=1;entryY=0.5;entryDx=0;entryDy=0;" parent="1" source="4" edge="1">
                    <mxGeometry width="50" height="50" relative="1" as="geometry">
                        <mxPoint x="-2610" y="-1300" as="sourcePoint"/>
                        <mxPoint x="-2600" y="-1160" as="targetPoint"/>
                        <Array as="points">
                            <mxPoint x="-2500" y="-1160"/>
                        </Array>
                    </mxGeometry>
                </mxCell>
                <mxCell id="17" value="stg分配结束" style="rounded=1;whiteSpace=wrap;html=1;fillColor=#FFFFFF;strokeColor=#000000;fontSize=12;fontColor=#000000;" parent="1" vertex="1">
                    <mxGeometry x="-2720" y="-1110" width="120" height="40" as="geometry"/>
                </mxCell>
                <mxCell id="18" value="N" style="text;html=1;align=center;verticalAlign=middle;resizable=0;points=[];autosize=1;strokeColor=none;fillColor=none;fontColor=#000000;fontSize=13;" parent="1" vertex="1">
                    <mxGeometry x="-2570" y="-1410" width="30" height="30" as="geometry"/>
                </mxCell>
                <mxCell id="19" value="Y" style="text;html=1;align=center;verticalAlign=middle;resizable=0;points=[];autosize=1;strokeColor=none;fillColor=none;fontColor=#000000;fontSize=13;" parent="1" vertex="1">
                    <mxGeometry x="-2660" y="-1350" width="30" height="30" as="geometry"/>
                </mxCell>
                <mxCell id="20" value="Y" style="text;html=1;align=center;verticalAlign=middle;resizable=0;points=[];autosize=1;strokeColor=none;fillColor=none;fontColor=#000000;fontSize=13;" parent="1" vertex="1">
                    <mxGeometry x="-2660" y="-1280" width="30" height="30" as="geometry"/>
                </mxCell>
                <mxCell id="21" value="N" style="text;html=1;align=center;verticalAlign=middle;resizable=0;points=[];autosize=1;strokeColor=none;fillColor=none;fontColor=#000000;fontSize=13;" parent="1" vertex="1">
                    <mxGeometry x="-2760" y="-1330" width="30" height="30" as="geometry"/>
                </mxCell>
                <mxCell id="22" value="vlan映射或者重新映射到stgid" style="rounded=0;whiteSpace=wrap;html=1;strokeColor=#000000;fontSize=12;fontColor=#000000;fillColor=#FFFFFF;" parent="1" vertex="1">
                    <mxGeometry x="-2720" y="-1180" width="120" height="40" as="geometry"/>
                </mxCell>
                <mxCell id="23" value="" style="endArrow=classic;html=1;strokeColor=#000000;fontSize=12;fontColor=#000000;exitX=0.5;exitY=1;exitDx=0;exitDy=0;entryX=0.5;entryY=0;entryDx=0;entryDy=0;" parent="1" source="22" target="17" edge="1">
                    <mxGeometry width="50" height="50" relative="1" as="geometry">
                        <mxPoint x="-2650" y="-1200" as="sourcePoint"/>
                        <mxPoint x="-2650" y="-1170" as="targetPoint"/>
                    </mxGeometry>
                </mxCell>
                <mxCell id="25" value="SW1" style="rounded=0;whiteSpace=wrap;html=1;strokeColor=#000000;fontSize=12;fontColor=#000000;fillColor=#FFFFFF;" vertex="1" parent="1">
                    <mxGeometry x="-1960" y="-1320" width="60" height="80" as="geometry"/>
                </mxCell>
                <mxCell id="28" value="" style="shape=waypoint;sketch=0;fillStyle=solid;size=6;pointerEvents=1;points=[];resizable=0;rotatable=0;perimeter=centerPerimeter;snapToPoint=1;strokeColor=#000000;strokeWidth=2;" vertex="1" parent="1">
                    <mxGeometry x="-1970" y="-1290" width="20" height="20" as="geometry"/>
                </mxCell>
                <mxCell id="30" value="" style="shape=waypoint;sketch=0;fillStyle=solid;size=6;pointerEvents=1;points=[];resizable=0;rotatable=0;perimeter=centerPerimeter;snapToPoint=1;strokeColor=#000000;strokeWidth=2;" vertex="1" parent="1">
                    <mxGeometry x="-1830" y="-1405" width="20" height="20" as="geometry"/>
                </mxCell>
                <mxCell id="31" value="" style="shape=waypoint;sketch=0;fillStyle=solid;size=6;pointerEvents=1;points=[];resizable=0;rotatable=0;perimeter=centerPerimeter;snapToPoint=1;strokeColor=#000000;strokeWidth=2;" vertex="1" parent="1">
                    <mxGeometry x="-1790" y="-1405" width="20" height="20" as="geometry"/>
                </mxCell>
                <mxCell id="32" value="" style="shape=waypoint;sketch=0;fillStyle=solid;size=6;pointerEvents=1;points=[];resizable=0;rotatable=0;perimeter=centerPerimeter;snapToPoint=1;strokeColor=#000000;strokeWidth=2;" vertex="1" parent="1">
                    <mxGeometry x="-1910" y="-1290" width="20" height="20" as="geometry"/>
                </mxCell>
                <mxCell id="35" value="仪表 1/5" style="rounded=0;whiteSpace=wrap;html=1;strokeColor=#000000;fontSize=12;fontColor=#000000;fillColor=#FFFFFF;" vertex="1" parent="1">
                    <mxGeometry x="-2090" y="-1310" width="60" height="60" as="geometry"/>
                </mxCell>
                <mxCell id="36" value="" style="shape=waypoint;sketch=0;fillStyle=solid;size=6;pointerEvents=1;points=[];resizable=0;rotatable=0;perimeter=centerPerimeter;snapToPoint=1;strokeColor=#000000;strokeWidth=2;" vertex="1" parent="1">
                    <mxGeometry x="-2040" y="-1290" width="20" height="20" as="geometry"/>
                </mxCell>
                <mxCell id="37" value="" style="endArrow=none;html=1;strokeColor=#000000;exitX=0.75;exitY=0.692;exitDx=0;exitDy=0;exitPerimeter=0;" edge="1" parent="1" source="36">
                    <mxGeometry width="50" height="50" relative="1" as="geometry">
                        <mxPoint x="-2010" y="-1230" as="sourcePoint"/>
                        <mxPoint x="-1960" y="-1280" as="targetPoint"/>
                    </mxGeometry>
                </mxCell>
                <mxCell id="39" value="SW2" style="rounded=0;whiteSpace=wrap;html=1;strokeColor=#000000;fontSize=12;fontColor=#000000;fillColor=#FFFFFF;" vertex="1" parent="1">
                    <mxGeometry x="-1790" y="-1320" width="60" height="80" as="geometry"/>
                </mxCell>
                <mxCell id="40" value="" style="shape=waypoint;sketch=0;fillStyle=solid;size=6;pointerEvents=1;points=[];resizable=0;rotatable=0;perimeter=centerPerimeter;snapToPoint=1;strokeColor=#000000;strokeWidth=2;" vertex="1" parent="1">
                    <mxGeometry x="-1800" y="-1290" width="20" height="20" as="geometry"/>
                </mxCell>
                <mxCell id="41" value="" style="shape=waypoint;sketch=0;fillStyle=solid;size=6;pointerEvents=1;points=[];resizable=0;rotatable=0;perimeter=centerPerimeter;snapToPoint=1;strokeColor=#000000;strokeWidth=2;" vertex="1" parent="1">
                    <mxGeometry x="-1740" y="-1310" width="20" height="20" as="geometry"/>
                </mxCell>
                <mxCell id="42" value="" style="shape=waypoint;sketch=0;fillStyle=solid;size=6;pointerEvents=1;points=[];resizable=0;rotatable=0;perimeter=centerPerimeter;snapToPoint=1;strokeColor=#000000;strokeWidth=2;" vertex="1" parent="1">
                    <mxGeometry x="-1740" y="-1270" width="20" height="20" as="geometry"/>
                </mxCell>
                <mxCell id="43" value="" style="endArrow=none;html=1;strokeColor=#000000;exitX=0.75;exitY=0.692;exitDx=0;exitDy=0;exitPerimeter=0;entryX=0.208;entryY=0.608;entryDx=0;entryDy=0;entryPerimeter=0;" edge="1" parent="1" target="40">
                    <mxGeometry width="50" height="50" relative="1" as="geometry">
                        <mxPoint x="-1900" y="-1280" as="sourcePoint"/>
                        <mxPoint x="-1830" y="-1280" as="targetPoint"/>
                    </mxGeometry>
                </mxCell>
                <mxCell id="49" value="" style="endArrow=none;html=1;strokeColor=#000000;exitX=0.75;exitY=0.692;exitDx=0;exitDy=0;exitPerimeter=0;entryX=0.333;entryY=0.275;entryDx=0;entryDy=0;entryPerimeter=0;" edge="1" parent="1" target="42">
                    <mxGeometry width="50" height="50" relative="1" as="geometry">
                        <mxPoint x="-1730" y="-1300" as="sourcePoint"/>
                        <mxPoint x="-1660" y="-1300" as="targetPoint"/>
                        <Array as="points">
                            <mxPoint x="-1690" y="-1300"/>
                            <mxPoint x="-1690" y="-1280"/>
                            <mxPoint x="-1690" y="-1260"/>
                        </Array>
                    </mxGeometry>
                </mxCell>
                <mxCell id="50" value="1/5/8" style="text;html=1;align=center;verticalAlign=middle;resizable=0;points=[];autosize=1;strokeColor=none;fillColor=none;fontColor=#000000;" vertex="1" parent="1">
                    <mxGeometry x="-2000" y="-1280" width="50" height="30" as="geometry"/>
                </mxCell>
                <mxCell id="51" value="1/5/5" style="text;html=1;align=center;verticalAlign=middle;resizable=0;points=[];autosize=1;strokeColor=none;fillColor=none;fontColor=#000000;" vertex="1" parent="1">
                    <mxGeometry x="-1900" y="-1280" width="50" height="30" as="geometry"/>
                </mxCell>
                <mxCell id="52" value="1/2/42" style="text;html=1;align=center;verticalAlign=middle;resizable=0;points=[];autosize=1;strokeColor=none;fillColor=none;fontColor=#000000;" vertex="1" parent="1">
                    <mxGeometry x="-1845" y="-1310" width="60" height="30" as="geometry"/>
                </mxCell>
                <mxCell id="53" value="1/2/41" style="text;html=1;align=center;verticalAlign=middle;resizable=0;points=[];autosize=1;strokeColor=none;fillColor=none;fontColor=#000000;" vertex="1" parent="1">
                    <mxGeometry x="-1738" y="-1325" width="60" height="30" as="geometry"/>
                </mxCell>
                <mxCell id="54" value="1/2/43" style="text;html=1;align=center;verticalAlign=middle;resizable=0;points=[];autosize=1;strokeColor=none;fillColor=none;fontColor=#000000;" vertex="1" parent="1">
                    <mxGeometry x="-1738" y="-1263" width="60" height="30" as="geometry"/>
                </mxCell>
                <mxCell id="55" value="SW1" style="rounded=0;whiteSpace=wrap;html=1;strokeColor=#000000;fontSize=12;fontColor=#000000;fillColor=#FFFFFF;" vertex="1" parent="1">
                    <mxGeometry x="-1960" y="-1135" width="60" height="80" as="geometry"/>
                </mxCell>
                <mxCell id="56" value="" style="shape=waypoint;sketch=0;fillStyle=solid;size=6;pointerEvents=1;points=[];resizable=0;rotatable=0;perimeter=centerPerimeter;snapToPoint=1;strokeColor=#000000;strokeWidth=2;" vertex="1" parent="1">
                    <mxGeometry x="-1970" y="-1105" width="20" height="20" as="geometry"/>
                </mxCell>
                <mxCell id="57" value="" style="shape=waypoint;sketch=0;fillStyle=solid;size=6;pointerEvents=1;points=[];resizable=0;rotatable=0;perimeter=centerPerimeter;snapToPoint=1;strokeColor=#000000;strokeWidth=2;" vertex="1" parent="1">
                    <mxGeometry x="-1910" y="-1130" width="20" height="20" as="geometry"/>
                </mxCell>
                <mxCell id="58" value="仪表 1/5" style="rounded=0;whiteSpace=wrap;html=1;strokeColor=#000000;fontSize=12;fontColor=#000000;fillColor=#FFFFFF;" vertex="1" parent="1">
                    <mxGeometry x="-2090" y="-1125" width="60" height="60" as="geometry"/>
                </mxCell>
                <mxCell id="59" value="" style="shape=waypoint;sketch=0;fillStyle=solid;size=6;pointerEvents=1;points=[];resizable=0;rotatable=0;perimeter=centerPerimeter;snapToPoint=1;strokeColor=#000000;strokeWidth=2;" vertex="1" parent="1">
                    <mxGeometry x="-2040" y="-1105" width="20" height="20" as="geometry"/>
                </mxCell>
                <mxCell id="60" value="" style="endArrow=none;html=1;strokeColor=#000000;exitX=0.75;exitY=0.692;exitDx=0;exitDy=0;exitPerimeter=0;" edge="1" parent="1" source="59">
                    <mxGeometry width="50" height="50" relative="1" as="geometry">
                        <mxPoint x="-2010" y="-1045" as="sourcePoint"/>
                        <mxPoint x="-1960" y="-1095" as="targetPoint"/>
                    </mxGeometry>
                </mxCell>
                <mxCell id="61" value="SW2" style="rounded=0;whiteSpace=wrap;html=1;strokeColor=#000000;fontSize=12;fontColor=#000000;fillColor=#FFFFFF;" vertex="1" parent="1">
                    <mxGeometry x="-1790" y="-1135" width="60" height="80" as="geometry"/>
                </mxCell>
                <mxCell id="62" value="" style="shape=waypoint;sketch=0;fillStyle=solid;size=6;pointerEvents=1;points=[];resizable=0;rotatable=0;perimeter=centerPerimeter;snapToPoint=1;strokeColor=#000000;strokeWidth=2;" vertex="1" parent="1">
                    <mxGeometry x="-1800" y="-1130" width="20" height="20" as="geometry"/>
                </mxCell>
                <mxCell id="63" value="" style="shape=waypoint;sketch=0;fillStyle=solid;size=6;pointerEvents=1;points=[];resizable=0;rotatable=0;perimeter=centerPerimeter;snapToPoint=1;strokeColor=#000000;strokeWidth=2;" vertex="1" parent="1">
                    <mxGeometry x="-1910" y="-1085" width="20" height="20" as="geometry"/>
                </mxCell>
                <mxCell id="64" value="" style="shape=waypoint;sketch=0;fillStyle=solid;size=6;pointerEvents=1;points=[];resizable=0;rotatable=0;perimeter=centerPerimeter;snapToPoint=1;strokeColor=#000000;strokeWidth=2;" vertex="1" parent="1">
                    <mxGeometry x="-1910" y="-1105" width="20" height="20" as="geometry"/>
                </mxCell>
                <mxCell id="65" value="" style="endArrow=none;html=1;strokeColor=#000000;exitX=0.75;exitY=0.692;exitDx=0;exitDy=0;exitPerimeter=0;entryX=0.208;entryY=0.608;entryDx=0;entryDy=0;entryPerimeter=0;" edge="1" parent="1">
                    <mxGeometry width="50" height="50" relative="1" as="geometry">
                        <mxPoint x="-1900" y="-1120" as="sourcePoint"/>
                        <mxPoint x="-1790" y="-1120" as="targetPoint"/>
                    </mxGeometry>
                </mxCell>
                <mxCell id="67" value="1/5/8" style="text;html=1;align=center;verticalAlign=middle;resizable=0;points=[];autosize=1;strokeColor=none;fillColor=none;fontColor=#000000;" vertex="1" parent="1">
                    <mxGeometry x="-2000" y="-1095" width="50" height="30" as="geometry"/>
                </mxCell>
                <mxCell id="68" value="1/5/5" style="text;html=1;align=center;verticalAlign=middle;resizable=0;points=[];autosize=1;strokeColor=none;fillColor=none;fontColor=#000000;" vertex="1" parent="1">
                    <mxGeometry x="-1900" y="-1140" width="50" height="30" as="geometry"/>
                </mxCell>
                <mxCell id="69" value="1/2/42" style="text;html=1;align=center;verticalAlign=middle;resizable=0;points=[];autosize=1;strokeColor=none;fillColor=none;fontColor=#000000;" vertex="1" parent="1">
                    <mxGeometry x="-1845" y="-1140" width="60" height="30" as="geometry"/>
                </mxCell>
                <mxCell id="70" value="1/5/6" style="text;html=1;align=center;verticalAlign=middle;resizable=0;points=[];autosize=1;strokeColor=none;fillColor=none;fontColor=#000000;" vertex="1" parent="1">
                    <mxGeometry x="-1900" y="-1115" width="50" height="30" as="geometry"/>
                </mxCell>
                <mxCell id="72" value="" style="endArrow=none;html=1;strokeColor=#000000;exitX=1;exitY=0.75;exitDx=0;exitDy=0;entryX=1;entryY=0.5;entryDx=0;entryDy=0;" edge="1" parent="1" source="55" target="55">
                    <mxGeometry width="50" height="50" relative="1" as="geometry">
                        <mxPoint x="-2020" y="-1085" as="sourcePoint"/>
                        <mxPoint x="-1950" y="-1085" as="targetPoint"/>
                        <Array as="points">
                            <mxPoint x="-1840" y="-1075"/>
                            <mxPoint x="-1840" y="-1080"/>
                            <mxPoint x="-1840" y="-1095"/>
                        </Array>
                    </mxGeometry>
                </mxCell>
                <mxCell id="73" value="1/5/7" style="text;html=1;align=center;verticalAlign=middle;resizable=0;points=[];autosize=1;strokeColor=none;fillColor=none;fontColor=#000000;" vertex="1" parent="1">
                    <mxGeometry x="-1900" y="-1079" width="50" height="30" as="geometry"/>
                </mxCell>
            </root>
        </mxGraphModel>
    </diagram>
</mxfile>